<svg xmlns="http://www.w3.org/2000/svg" xmlns:xlink="http://www.w3.org/1999/xlink" xmlns:svgjs="http://svgjs.com/svgjs" width="512" height="512" x="0" y="0" viewBox="0 0 128 128" style="enable-background:new 0 0 512 512" xml:space="preserve" class=""><g><g xmlns="http://www.w3.org/2000/svg"><path d="m115.437 0h-91a4.756 4.756 0 0 0 -4.75 4.75v4.63h-4.125a4.756 4.756 0 0 0 -4.75 4.75v2.551a4.756 4.756 0 0 0 4.75 4.75h4.125v7.388h-4.125a4.756 4.756 0 0 0 -4.75 4.75v2.551a4.756 4.756 0 0 0 4.75 4.75h4.125v7.388h-4.125a4.756 4.756 0 0 0 -4.75 4.75v2.551a4.756 4.756 0 0 0 4.75 4.75h4.125v7.391h-4.125a4.756 4.756 0 0 0 -4.75 4.75v2.55a4.756 4.756 0 0 0 4.75 4.75h4.125v7.388h-4.125a4.756 4.756 0 0 0 -4.75 4.75v2.55a4.755 4.755 0 0 0 4.75 4.75h4.125v7.389h-4.125a4.756 4.756 0 0 0 -4.75 4.75v2.551a4.756 4.756 0 0 0 4.75 4.75h4.125v4.624a4.756 4.756 0 0 0 4.75 4.75h91a1.75 1.75 0 0 0 1.75-1.75v-124.502a1.75 1.75 0 0 0 -1.75-1.75zm-101.125 16.681v-2.551a1.252 1.252 0 0 1 1.25-1.25h14v5.051h-14a1.251 1.251 0 0 1 -1.25-1.25zm0 19.439v-2.551a1.252 1.252 0 0 1 1.25-1.25h14v5.051h-14a1.251 1.251 0 0 1 -1.25-1.25zm0 19.439v-2.551a1.252 1.252 0 0 1 1.25-1.25h14v5.051h-14a1.252 1.252 0 0 1 -1.25-1.25zm0 19.439v-2.551a1.251 1.251 0 0 1 1.25-1.25h14v5.051h-14a1.252 1.252 0 0 1 -1.25-1.248zm0 19.438v-2.55a1.251 1.251 0 0 1 1.25-1.25h14v5.05h-14a1.251 1.251 0 0 1 -1.25-1.25zm0 19.44v-2.551a1.251 1.251 0 0 1 1.25-1.25h14v5.051h-14a1.252 1.252 0 0 1 -1.25-1.25zm8.875 9.374v-4.624h8.122a1.751 1.751 0 0 0 1.75-1.75v-8.551a1.75 1.75 0 0 0 -1.75-1.75h-8.122v-7.389h8.122a1.75 1.75 0 0 0 1.75-1.75v-8.55a1.75 1.75 0 0 0 -1.75-1.75h-8.122v-7.388h8.122a1.751 1.751 0 0 0 1.75-1.748v-8.553a1.75 1.75 0 0 0 -1.75-1.75h-8.122v-7.388h8.122a1.751 1.751 0 0 0 1.75-1.75v-8.551a1.751 1.751 0 0 0 -1.75-1.75h-8.122v-7.388h8.122a1.751 1.751 0 0 0 1.75-1.75v-8.551a1.751 1.751 0 0 0 -1.75-1.75h-8.122v-7.388h8.122a1.75 1.75 0 0 0 1.75-1.75v-8.551a1.751 1.751 0 0 0 -1.75-1.75h-8.122v-4.63a1.251 1.251 0 0 1 1.25-1.25h14.994v121h-14.994a1.251 1.251 0 0 1 -1.25-1.25zm90.5 1.25h-70.756v-121h70.756z" fill="#cfff00" data-original="#000000"></path><path d="m52.243 47.519h52.132a1.75 1.75 0 0 0 1.75-1.75v-16a1.75 1.75 0 0 0 -1.75-1.75h-52.132a1.75 1.75 0 0 0 -1.75 1.75v16a1.75 1.75 0 0 0 1.75 1.75zm1.75-16h48.632v12.5h-48.632z" fill="#cfff00" data-original="#000000"></path><path d="m97.971 52.534h-39.324a1.75 1.75 0 0 0 0 3.5h39.324a1.75 1.75 0 0 0 0-3.5z" fill="#cfff00" data-original="#000000"></path></g></g></svg>