<svg xmlns="http://www.w3.org/2000/svg" xmlns:xlink="http://www.w3.org/1999/xlink" xmlns:svgjs="http://svgjs.com/svgjs" width="512" height="512" x="0" y="0" viewBox="0 0 511 511.999" style="enable-background:new 0 0 512 512" xml:space="preserve" class=""><g><path xmlns="http://www.w3.org/2000/svg" d="m428.84375 41.546875h-3.78125v-10.679687c0-17.019532-13.847656-30.867188-30.867188-30.867188-17.019531 0-30.863281 13.847656-30.863281 30.867188v10.679687h-43.914062v-10.679687c-.003907-17.019532-13.847657-30.867188-30.867188-30.867188-17.023437 0-30.867187 13.847656-30.867187 30.867188v10.679687h-43.914063v-10.679687c0-17.019532-13.847656-30.867188-30.867187-30.867188-17.019532 0-30.867188 13.847656-30.867188 30.867188v10.679687h-43.914062v-10.679687c0-17.019532-13.84375-30.867188-30.867188-30.867188-17.015625 0-30.863281 13.847656-30.863281 30.867188v10.679687h-3.785156c-23.214844 0-42.105469 18.890625-42.105469 42.105469v319.878906c0 4.140625 3.359375 7.5 7.503906 7.5 4.144532 0 7.503906-3.359375 7.503906-7.5v-260.921875h440.441407v64.171875c0 4.140625 3.355469 7.5 7.5 7.5s7.503906-3.359375 7.503906-7.5v-123.128906c0-23.214844-18.890625-42.105469-42.109375-42.105469zm-50.507812-10.679687c0-8.746094 7.113281-15.859376 15.859374-15.859376 8.746094 0 15.859376 7.113282 15.859376 15.859376v35.964843c0 8.746094-7.113282 15.859375-15.859376 15.859375-8.746093 0-15.859374-7.113281-15.859374-15.859375zm-105.648438 0c0-8.746094 7.117188-15.859376 15.863281-15.859376 8.742188 0 15.859375 7.113282 15.859375 15.859376v35.964843c0 8.746094-7.113281 15.859375-15.859375 15.859375-8.746093 0-15.863281-7.113281-15.863281-15.859375zm-105.644531 0c0-8.746094 7.113281-15.859376 15.859375-15.859376s15.859375 7.113282 15.859375 15.859376v35.964843c0 8.746094-7.113281 15.859375-15.859375 15.859375-8.742188 0-15.859375-7.113281-15.859375-15.859375zm-105.648438 0c0-8.746094 7.117188-15.859376 15.859375-15.859376 8.746094 0 15.863282 7.113282 15.863282 15.859376v35.964843c0 8.746094-7.117188 15.859375-15.863282 15.859375-8.742187 0-15.859375-7.113281-15.859375-15.859375zm-45.886719 96.738281v-43.953125c0-14.941406 12.15625-27.097656 27.097657-27.097656h3.785156v10.277343c0 17.019531 13.847656 30.867188 30.867187 30.867188 17.019532 0 30.863282-13.847657 30.863282-30.867188v-10.277343h43.914062v10.277343c0 17.019531 13.847656 30.867188 30.867188 30.867188 17.019531 0 30.867187-13.847657 30.867187-30.867188v-10.277343h43.914063v10.277343c0 17.019531 13.84375 30.867188 30.863281 30.867188s30.867187-13.847657 30.867187-30.867188v-10.277343h43.914063v10.277343c0 17.019531 13.847656 30.867188 30.867187 30.867188 17.019532 0 30.867188-13.847657 30.867188-30.867188v-10.277343h3.78125c14.945312 0 27.101562 12.15625 27.101562 27.097656v43.953125zm0 0" fill="#00091b" data-original="#000000" class=""></path><path xmlns="http://www.w3.org/2000/svg" d="m463.449219 229.304688c-4.144531 0-7.503907 3.359374-7.503907 7.503906v233.082031c0 14.945313-12.15625 27.101563-27.101562 27.101563h-386.238281c-14.941407 0-27.101563-12.15625-27.101563-27.101563v-36.332031c0-4.144532-3.355468-7.503906-7.5-7.503906-4.144531 0-7.503906 3.359374-7.503906 7.503906v36.332031c0 23.21875 18.890625 42.109375 42.105469 42.109375h386.238281c23.21875 0 42.109375-18.890625 42.109375-42.109375v-233.082031c0-4.144532-3.359375-7.503906-7.503906-7.503906zm0 0" fill="#00091b" data-original="#000000" class=""></path><path xmlns="http://www.w3.org/2000/svg" d="m76.605469 258.105469h34.003906c10.652344 0 19.320313-8.667969 19.320313-19.320313v-34.003906c0-10.652344-8.667969-19.324219-19.320313-19.324219h-34.003906c-10.65625 0-19.324219 8.671875-19.324219 19.324219v34.003906c0 10.652344 8.667969 19.320313 19.324219 19.320313zm-4.316407-53.324219c0-2.378906 1.933594-4.316406 4.3125-4.316406h34.003907c2.382812 0 4.316406 1.9375 4.316406 4.316406v34.003906c0 2.378906-1.933594 4.316406-4.316406 4.316406h-34c-2.382813 0-4.316407-1.9375-4.316407-4.316406zm0 0" fill="#00091b" data-original="#000000" class=""></path><path xmlns="http://www.w3.org/2000/svg" d="m171.351562 258.105469h34.003907c10.652343 0 19.320312-8.667969 19.320312-19.320313v-34.003906c0-10.652344-8.667969-19.324219-19.320312-19.324219h-34.003907c-10.652343 0-19.324218 8.671875-19.324218 19.324219v34.003906c0 10.652344 8.667968 19.320313 19.324218 19.320313zm-4.316406-53.324219c0-2.378906 1.933594-4.316406 4.316406-4.316406h34.003907c2.378906 0 4.3125 1.9375 4.3125 4.316406v34.003906c0 2.378906-1.933594 4.316406-4.3125 4.316406h-34.003907c-2.382812 0-4.316406-1.9375-4.316406-4.316406zm0 0" fill="#00091b" data-original="#000000" class=""></path><path xmlns="http://www.w3.org/2000/svg" d="m266.097656 258.105469h34.003906c10.652344 0 19.320313-8.667969 19.320313-19.320313v-34.003906c0-10.652344-8.667969-19.324219-19.320313-19.324219h-34.003906c-10.652344 0-19.320312 8.671875-19.320312 19.324219v34.003906c-.003906 10.652344 8.664062 19.320313 19.320312 19.320313zm-4.316406-53.324219c0-2.378906 1.9375-4.316406 4.316406-4.316406h34.003906c2.378907 0 4.316407 1.9375 4.316407 4.316406v34.003906c0 2.378906-1.9375 4.316406-4.316407 4.316406h-34.003906c-2.378906 0-4.316406-1.9375-4.316406-4.316406zm0 0" fill="#00091b" data-original="#000000" class=""></path><path xmlns="http://www.w3.org/2000/svg" d="m360.84375 258.105469h34.003906c10.65625 0 19.320313-8.667969 19.320313-19.320313v-34.003906c0-10.652344-8.664063-19.324219-19.320313-19.324219h-34.003906c-10.652344 0-19.320312 8.671875-19.320312 19.324219v34.003906c-.003907 10.652344 8.667968 19.320313 19.320312 19.320313zm-4.316406-53.324219c0-2.378906 1.9375-4.316406 4.316406-4.316406h34.003906c2.378906 0 4.316406 1.9375 4.316406 4.316406v34.003906c0 2.378906-1.9375 4.316406-4.316406 4.316406h-34.003906c-2.378906 0-4.316406-1.9375-4.316406-4.316406zm0 0" fill="#00091b" data-original="#000000" class=""></path><path xmlns="http://www.w3.org/2000/svg" d="m57.28125 337.164062c0 10.65625 8.667969 19.324219 19.320312 19.324219h34.003907c10.65625 0 19.324219-8.667969 19.324219-19.324219v-34.003906c0-10.652344-8.667969-19.320312-19.324219-19.320312h-34c-10.65625 0-19.324219 8.667968-19.324219 19.320312zm15.007812-34.003906c0-2.378906 1.933594-4.316406 4.3125-4.316406h34.003907c2.382812 0 4.316406 1.9375 4.316406 4.316406v34.003906c0 2.378907-1.933594 4.316407-4.316406 4.316407h-34c-2.382813 0-4.316407-1.9375-4.316407-4.316407zm0 0" fill="#00091b" data-original="#000000" class=""></path><path xmlns="http://www.w3.org/2000/svg" d="m152.027344 337.164062c0 10.65625 8.667968 19.324219 19.324218 19.324219h34.003907c10.652343 0 19.320312-8.667969 19.320312-19.324219v-34.003906c0-10.652344-8.667969-19.320312-19.320312-19.320312h-34.003907c-10.65625 0-19.324218 8.667968-19.324218 19.320312zm15.007812-34.003906c0-2.378906 1.933594-4.316406 4.316406-4.316406h34.003907c2.378906 0 4.3125 1.9375 4.3125 4.316406v34.003906c0 2.378907-1.933594 4.316407-4.3125 4.316407h-34.003907c-2.382812 0-4.316406-1.9375-4.316406-4.316407zm0 0" fill="#00091b" data-original="#000000" class=""></path><path xmlns="http://www.w3.org/2000/svg" d="m246.773438 337.164062c0 10.65625 8.667968 19.324219 19.324218 19.324219h34.003906c10.652344 0 19.320313-8.667969 19.320313-19.324219v-34.003906c0-10.652344-8.667969-19.320312-19.320313-19.320312h-34.003906c-10.65625 0-19.324218 8.667968-19.324218 19.320312zm15.007812-34.003906c0-2.378906 1.9375-4.316406 4.316406-4.316406h34.003906c2.378907 0 4.316407 1.9375 4.316407 4.316406v34.003906c0 2.378907-1.9375 4.316407-4.316407 4.316407h-34.003906c-2.378906 0-4.316406-1.9375-4.316406-4.316407zm0 0" fill="#00091b" data-original="#000000" class=""></path><path xmlns="http://www.w3.org/2000/svg" d="m341.519531 337.164062c0 10.65625 8.671875 19.324219 19.324219 19.324219h34.003906c10.652344 0 19.320313-8.667969 19.320313-19.324219v-34.003906c0-10.652344-8.667969-19.320312-19.320313-19.320312h-34.003906c-10.652344 0-19.324219 8.667968-19.324219 19.320312zm15.007813-34.003906c0-2.378906 1.9375-4.316406 4.316406-4.316406h34.003906c2.378906 0 4.316406 1.9375 4.316406 4.316406v34.003906c0 2.378907-1.9375 4.316407-4.316406 4.316407h-34.003906c-2.378906 0-4.316406-1.9375-4.316406-4.316407zm0 0" fill="#00091b" data-original="#000000" class=""></path><path xmlns="http://www.w3.org/2000/svg" d="m57.28125 435.546875c0 10.652344 8.667969 19.320313 19.320312 19.320313h34.003907c10.65625 0 19.324219-8.667969 19.324219-19.320313v-34.003906c0-10.65625-8.667969-19.324219-19.324219-19.324219h-34c-10.65625 0-19.324219 8.667969-19.324219 19.324219zm15.007812-34.003906c0-2.382813 1.933594-4.316407 4.3125-4.316407h34.003907c2.382812 0 4.316406 1.933594 4.316406 4.316407v34.003906c0 2.378906-1.933594 4.316406-4.316406 4.316406h-34c-2.382813 0-4.316407-1.9375-4.316407-4.316406zm0 0" fill="#00091b" data-original="#000000" class=""></path><path xmlns="http://www.w3.org/2000/svg" d="m152.027344 435.546875c0 10.652344 8.667968 19.320313 19.324218 19.320313h34.003907c10.652343 0 19.320312-8.667969 19.320312-19.320313v-34.003906c0-10.65625-8.667969-19.324219-19.320312-19.324219h-34.003907c-10.65625 0-19.324218 8.667969-19.324218 19.324219zm15.007812-34.003906c0-2.382813 1.933594-4.316407 4.316406-4.316407h34.003907c2.378906 0 4.3125 1.933594 4.3125 4.316407v34.003906c0 2.378906-1.933594 4.316406-4.3125 4.316406h-34.003907c-2.382812 0-4.316406-1.9375-4.316406-4.316406zm0 0" fill="#00091b" data-original="#000000" class=""></path><path xmlns="http://www.w3.org/2000/svg" d="m246.773438 435.546875c0 10.652344 8.667968 19.320313 19.324218 19.320313h34.003906c10.652344 0 19.320313-8.667969 19.320313-19.320313v-34.003906c0-10.65625-8.667969-19.324219-19.320313-19.324219h-34.003906c-10.65625 0-19.324218 8.667969-19.324218 19.324219zm15.007812-34.003906c0-2.382813 1.9375-4.316407 4.316406-4.316407h34.003906c2.378907 0 4.316407 1.933594 4.316407 4.316407v34.003906c0 2.378906-1.9375 4.316406-4.316407 4.316406h-34.003906c-2.378906 0-4.316406-1.9375-4.316406-4.316406zm0 0" fill="#00091b" data-original="#000000" class=""></path><path xmlns="http://www.w3.org/2000/svg" d="m341.519531 435.546875c0 10.652344 8.671875 19.320313 19.324219 19.320313h34.003906c10.652344 0 19.320313-8.667969 19.320313-19.320313v-34.003906c0-10.65625-8.667969-19.324219-19.320313-19.324219h-34.003906c-10.652344 0-19.324219 8.667969-19.324219 19.324219zm15.007813-34.003906c0-2.382813 1.9375-4.316407 4.316406-4.316407h34.003906c2.378906 0 4.316406 1.933594 4.316406 4.316407v34.003906c0 2.378906-1.9375 4.316406-4.316406 4.316406h-34.003906c-2.378906 0-4.316406-1.9375-4.316406-4.316406zm0 0" fill="#00091b" data-original="#000000" class=""></path></g></svg>