<svg xmlns="http://www.w3.org/2000/svg" xmlns:xlink="http://www.w3.org/1999/xlink" xmlns:svgjs="http://svgjs.com/svgjs" width="512" height="512" x="0" y="0" viewBox="0 0 512 512" style="enable-background:new 0 0 512 512" xml:space="preserve" class=""><g><g xmlns="http://www.w3.org/2000/svg"><path d="m401.869 283.952c-7.929-4.577-16.405-7.346-23.869-7.793-9.298-.562-16.359 2.47-19.857 8.528s-2.595 13.68 2.543 21.461c4.12 6.24 10.755 12.197 18.683 16.774 9.034 5.216 18.135 7.812 25.833 7.812 8.077 0 14.609-2.859 17.894-8.546 0-.001 0-.001 0-.001 6.412-11.108-2.713-27.546-21.227-38.235zm8.236 30.735c-.936 1.617-10.663 2.505-23.236-4.755-5.865-3.386-10.846-7.777-13.666-12.049-2.155-3.264-2.272-5.346-2.07-5.696.116-.201 1.379-1.095 4.714-1.095.389 0 .807.012 1.254.039 5.109.307 11.403 2.425 17.268 5.811 12.575 7.26 16.669 16.129 15.736 17.745z" fill="#00091b" data-original="#000000" class=""></path><path d="m324.985 132.503c0-4.143-3.358-7.5-7.5-7.5-14.495 0-26.288-11.793-26.288-26.288 0-4.143-3.358-7.5-7.5-7.5s-7.5 3.357-7.5 7.5c0 22.767 18.522 41.288 41.288 41.288 4.142 0 7.5-3.357 7.5-7.5z" fill="#00091b" data-original="#000000" class=""></path><path d="m314.985 182.503c0-4.143-3.358-7.5-7.5-7.5-36.552 0-66.289-29.736-66.289-66.288 0-4.143-3.358-7.5-7.5-7.5s-7.5 3.357-7.5 7.5c0 44.822 36.466 81.288 81.289 81.288 4.142 0 7.5-3.357 7.5-7.5z" fill="#00091b" data-original="#000000" class=""></path><path d="m304.985 232.503c0-4.143-3.358-7.5-7.5-7.5-58.608 0-106.289-47.681-106.289-106.288 0-4.143-3.358-7.5-7.5-7.5s-7.5 3.357-7.5 7.5c0 66.879 54.41 121.288 121.289 121.288 4.142 0 7.5-3.357 7.5-7.5z" fill="#00091b" data-original="#000000" class=""></path><path d="m141.196 128.715c0-4.143-3.358-7.5-7.5-7.5s-7.5 3.357-7.5 7.5c0 88.935 72.354 161.288 161.289 161.288 4.142 0 7.5-3.357 7.5-7.5s-3.358-7.5-7.5-7.5c-80.664 0-146.289-65.625-146.289-146.288z" fill="#00091b" data-original="#000000" class=""></path><path d="m489.5 25.003h-304.472c-4.142 0-7.5 3.357-7.5 7.5s3.358 7.5 7.5 7.5h304.472c4.135 0 7.5 3.364 7.5 7.5v7.5h-34.18c-4.142 0-7.5 3.357-7.5 7.5s3.358 7.5 7.5 7.5h34.18v245h-35.117l17.193-29.778c6.203-10.743 2.509-24.531-8.235-30.735l-77.943-45c-10.744-6.202-24.532-2.509-30.735 8.235l-56.164 97.278h-290.999v-22.5c0-4.143-3.358-7.5-7.5-7.5s-7.5 3.357-7.5 7.5v55c0 12.406 10.093 22.5 22.5 22.5h193.136c-2.18 8.89-7.747 15-10.858 15h-57.278c-15.164 0-27.5 12.337-27.5 27.5 0 9.649 7.851 17.5 17.5 17.5h114.263c1.91 3.631 4.827 6.785 8.635 8.983l77.942 45c3.534 2.04 7.397 3.01 11.211 3.01 7.783 0 15.361-4.036 19.524-11.246l84.147-145.747h43.778v17.5c0 4.136-3.365 7.5-7.5 7.5h-32.265c-4.142 0-7.5 3.357-7.5 7.5s3.358 7.5 7.5 7.5h32.265c12.407 0 22.5-10.094 22.5-22.5v-300c0-12.406-10.093-22.5-22.5-22.5zm-474.5 322.5v-17.5h282.339l-14.434 25h-260.405c-4.135 0-7.5-3.364-7.5-7.5zm215.92 22.5h43.325l-8.66 15h-40.106c2.601-4.355 4.514-9.474 5.441-15zm-95.92 42.5c0-6.893 5.607-12.5 12.5-12.5h109.424l-4.761 8.247c-1.245 2.157-2.085 4.437-2.556 6.753h-112.107c-1.378 0-2.5-1.121-2.5-2.5zm221.085 55.747c-2.068 3.582-6.665 4.812-10.245 2.746l-77.942-45c-3.582-2.068-4.813-6.664-2.746-10.246l110-190.525c2.068-3.58 6.665-4.811 10.245-2.745l77.942 45c3.582 2.068 4.813 6.664 2.746 10.245z" fill="#00091b" data-original="#000000" class=""></path><path d="m7.5 270.003c4.142 0 7.5-3.357 7.5-7.5v-192.5h417.82c4.142 0 7.5-3.357 7.5-7.5s-3.358-7.5-7.5-7.5h-417.82v-7.5c0-4.136 3.364-7.5 7.5-7.5h132.528c4.142 0 7.5-3.357 7.5-7.5s-3.358-7.5-7.5-7.5h-132.528c-12.407 0-22.5 10.094-22.5 22.5v215c0 4.143 3.358 7.5 7.5 7.5z" fill="#00091b" data-original="#000000" class=""></path><circle cx="297.123" cy="405.348" r="8" fill="#00091b" data-original="#000000" class=""></circle><circle cx="323.104" cy="420.348" r="8" fill="#00091b" data-original="#000000" class=""></circle><circle cx="349.086" cy="435.354" r="8" fill="#00091b" data-original="#000000" class=""></circle><circle cx="312.125" cy="379.374" r="8" fill="#00091b" data-original="#000000" class=""></circle><circle cx="338.106" cy="394.374" r="8" fill="#00091b" data-original="#000000" class=""></circle><circle cx="364.089" cy="409.379" r="8" fill="#00091b" data-original="#000000" class=""></circle><circle cx="327.121" cy="353.385" r="8" fill="#00091b" data-original="#000000" class=""></circle><circle cx="353.102" cy="368.385" r="8" fill="#00091b" data-original="#000000" class=""></circle><circle cx="379.085" cy="383.391" r="8" fill="#00091b" data-original="#000000" class=""></circle><circle cx="342.123" cy="327.406" r="8" fill="#00091b" data-original="#000000" class=""></circle><circle cx="368.104" cy="342.406" r="8" fill="#00091b" data-original="#000000" class=""></circle><circle cx="394.086" cy="357.412" r="8" fill="#00091b" data-original="#000000" class=""></circle><circle cx="439.086" cy="279.469" r="8" fill="#00091b" data-original="#000000" class=""></circle></g></g></svg>