<svg xmlns="http://www.w3.org/2000/svg" xmlns:xlink="http://www.w3.org/1999/xlink" xmlns:svgjs="http://svgjs.com/svgjs" width="512" height="512" x="0" y="0" viewBox="0 0 32 32" style="enable-background:new 0 0 512 512" xml:space="preserve" class=""><g><g xmlns="http://www.w3.org/2000/svg" id="message"><path d="m22.66 29.47a3.22 3.22 0 0 1 -1.5-.37l-4.59-2.41a1.22 1.22 0 0 0 -1.14 0l-4.59 2.41a3.22 3.22 0 0 1 -4.67-3.4l.83-5.11a1.22 1.22 0 0 0 -.35-1.08l-3.65-3.63a3.22 3.22 0 0 1 1.79-5.49l5.13-.75a1.22 1.22 0 0 0 .89-.64l2.3-4.65a3.22 3.22 0 0 1 5.78 0l2.3 4.65a1.22 1.22 0 0 0 .92.67l5.13.75a3.22 3.22 0 0 1 1.76 5.46l-3.71 3.62a1.22 1.22 0 0 0 -.29 1.09l.88 5.11a3.23 3.23 0 0 1 -3.17 3.77zm-6.66-4.93a3.22 3.22 0 0 1 1.5.37l4.59 2.41a1.22 1.22 0 0 0 1.77-1.32l-.86-5.07a3.22 3.22 0 0 1 .93-2.85l3.71-3.62a1.22 1.22 0 0 0 -.64-2.09l-5.13-.75a3.22 3.22 0 0 1 -2.43-1.76l-2.34-4.65a1.22 1.22 0 0 0 -2.19 0l-2.3 4.65a3.22 3.22 0 0 1 -2.43 1.76l-5.18.75a1.22 1.22 0 0 0 -.68 2.08l3.72 3.62a3.22 3.22 0 0 1 .96 2.86l-.86 5.07a1.22 1.22 0 0 0 1.77 1.29l4.59-2.41a3.22 3.22 0 0 1 1.5-.34z" fill="#cfff00" data-original="#000000" class=""></path></g></g></svg>