<svg xmlns="http://www.w3.org/2000/svg" xmlns:xlink="http://www.w3.org/1999/xlink" xmlns:svgjs="http://svgjs.com/svgjs" width="512" height="512" x="0" y="0" viewBox="0 0 512 512.00096" style="enable-background:new 0 0 512 512" xml:space="preserve" class=""><g><path xmlns="http://www.w3.org/2000/svg" d="m163.660156 249.351562c-3.910156 3.898438-3.910156 10.230469 0 14.140626 3.910156 3.898437 10.238282 3.898437 14.140625 0 3.910157-3.910157 3.910157-10.242188 0-14.140626-3.902343-3.910156-10.230469-3.910156-14.140625 0zm0 0" fill="#cfff00" data-original="#000000" class=""></path><path xmlns="http://www.w3.org/2000/svg" d="m207.59375 431.265625 25.222656-42.046875 15.691406 15.691406c.691407.691406 1.457032 1.25 2.269532 1.695313l9.054687 63.359375c1.171875 8.195312 11.179688 11.441406 16.96875 5.65625l84.851563-84.851563c1.605468-1.605469 2.613281-3.707031 2.867187-5.964843l10.222657-91.972657 56.550781-56.5625c24.832031-24.832031 44.605469-59.554687 58.777343-103.203125 20.21875-62.285156 21.867188-120.375 21.925782-122.820312.066406-2.734375-.988282-5.378906-2.925782-7.316406-1.933593-1.9375-4.5625-3.0000005-7.316406-2.92578175-2.441406.06249995-60.53125 1.70703175-122.820312 21.92578175-43.648438 14.171874-78.371094 33.949218-103.203125 58.78125l-56.546875 56.546874-91.988282 10.222657c-2.257812.25-4.359374 1.261719-5.964843 2.867187l-84.851563 84.851563c-2.679687 2.679687-3.613281 6.640625-2.414062 10.230469 1.195312 3.59375 4.320312 6.203124 8.070312 6.738281l63.359375 9.054687c1.230469 2.246094 1.335938 1.710938 17.386719 17.960938l-42.046875 25.21875c-2.640625 1.585937-4.402344 4.296875-4.777344 7.355468-.378906 3.054688.675781 6.117188 2.851563 8.292969l113.140625 113.140625c4.574219 4.574219 12.28125 3.679688 15.644531-1.925781zm69.207031 16.070313-7.074219-49.5 82.375-82.367188-7.074218 63.640625zm198.996094-336.257813-74.875-74.875c38.195313-10.605469 73.371094-14.324219 90.460937-15.585937-1.257812 17.09375-4.980468 52.269531-15.585937 90.460937zm-185.925781-16.226563c21.492187-21.492187 51.582031-38.949218 89.460937-51.953124l89.773438 89.769531c-13.007813 37.878906-30.464844 67.96875-51.957031 89.460937l-133.277344 133.277344-77.777344-77.777344c-3.90625-3.902344-10.238281-3.902344-14.144531 0-3.90625 3.90625-3.90625 10.238282 0 14.144532l77.777343 77.777343-14.144531 14.148438-127.277343-127.277344 102.535156-102.53125zm-156.980469 72.121094 63.652344-7.074218-82.378907 82.375-49.5-7.074219zm4.46875 126.789063 80.878906 80.878906-21.203125 35.351563-95.023437-95.023438zm0 0" fill="#cfff00" data-original="#000000" class=""></path><path xmlns="http://www.w3.org/2000/svg" d="m17.070312 509.070312 104.160157-104.160156c3.90625-3.902344 3.90625-10.234375 0-14.140625s-10.234375-3.90625-14.140625 0l-104.160156 104.160157c-3.90625 3.90625-3.90625 10.238281 0 14.144531 3.90625 3.902343 10.234374 3.902343 14.140624-.003907zm0 0" fill="#cfff00" data-original="#000000" class=""></path><path xmlns="http://www.w3.org/2000/svg" d="m149.523438 419.050781c-3.90625-3.90625-10.238282-3.90625-14.144532 0l-61.738281 61.738281c-3.90625 3.90625-3.90625 10.238282 0 14.144532 3.90625 3.902344 10.234375 3.902344 14.140625 0l61.742188-61.742188c3.902343-3.90625 3.902343-10.238281 0-14.140625zm0 0" fill="#cfff00" data-original="#000000" class=""></path><path xmlns="http://www.w3.org/2000/svg" d="m78.808594 362.480469-61.738282 61.738281c-3.90625 3.90625-3.90625 10.238281 0 14.144531 3.90625 3.902344 10.234376 3.902344 14.140626 0l61.742187-61.742187c3.902344-3.902344 3.902344-10.234375 0-14.140625-3.90625-3.90625-10.238281-3.90625-14.144531 0zm0 0" fill="#cfff00" data-original="#000000" class=""></path><path xmlns="http://www.w3.org/2000/svg" d="m367.652344 229.203125c23.386718-23.390625 23.386718-61.453125-.003906-84.855469-23.398438-23.386718-61.460938-23.382812-84.851563.003906-23.4375 23.441407-23.460937 61.402344 0 84.851563 23.441406 23.449219 61.398437 23.453125 84.855469 0zm-70.710938-70.710937c15.589844-15.589844 40.96875-15.589844 56.566406 0 15.589844 15.597656 15.59375 40.976562 0 56.566406-15.632812 15.632812-40.933593 15.644531-56.566406 0-15.632812-15.625-15.640625-40.929688 0-56.566406zm0 0" fill="#cfff00" data-original="#000000" class=""></path></g></svg>