<?xml version="1.0" encoding="UTF-8"?>
<svg class="" width="512" height="512" enable-background="new 0 0 512 512" viewBox="0 0 506.96 506.96" xml:space="preserve" xmlns="http://www.w3.org/2000/svg"><g transform="translate(2 1)" xmlns="http://www.w3.org/2000/svg">			<g fill="#00091b">			<path class="" d="m252.32-1c-138.49 0-250.96 112.47-250.96 250.12 0 43.646 11.751 85.613 33.574 124.22l-36.931 132.62 135.13-36.092c39.449 20.984 80.577 32.734 119.19 32.734 136.81 0 252.64-115.83 252.64-253.48s-113.31-250.12-252.64-250.12zm0 486.82c-36.931 0-76.38-11.751-114.15-32.734l-3.357-1.679-113.31 31.055 31.055-111.63-1.679-3.357c-20.984-36.092-32.734-77.22-32.734-118.35 0-128.42 104.92-233.34 234.18-233.34 130.1 0 235.86 104.92 235.86 233.34s-108.28 236.7-235.86 236.7z" data-original="#000000"/>			<path class="" d="m252.32 40.967c-114.99 0-209 93.167-209 208.16 0 41.128 11.751 79.738 32.734 114.15l3.357 4.197-22.661 79.738 82.256-20.984 4.197 2.518c34.413 20.984 72.184 31.895 109.12 31.895 115.83 0 210.68-94.846 210.68-211.52 0-114.99-94.846-208.16-210.68-208.16zm-0.839 403.72c-33.574 0-67.987-10.911-99.882-30.216l-10.072-6.715-61.272 15.108 16.787-58.754-6.715-10.911c-20.144-31.056-30.216-67.148-30.216-104.08 0-104.92 86.452-191.37 192.21-191.37 106.6 0 193.89 86.452 193.89 191.37-1e-3 107.44-87.293 194.73-194.73 195.57z" data-original="#000000"/>			<path class="" d="m378.22 295.29-52.879-24.341c-7.554-3.357-15.108-0.839-20.144 5.036l-20.144 26.02c-15.108-5.875-57.075-24.341-81.416-69.666l18.466-21.823c4.197-5.036 5.036-11.751 2.518-17.626l-22.662-53.718c-2.518-5.875-7.554-10.072-14.269-10.072l-15.948-0.839c-6.715 0-14.269 1.679-19.305 6.715-7.554 6.715-21.823 20.984-26.02 40.289-5.875 27.698 3.357 60.433 26.859 92.328 14.269 20.144 57.915 79.738 141.85 103.24 8.393 2.518 16.787 3.357 24.341 3.357 14.269 0 27.698-4.197 39.449-10.911 13.43-8.393 22.662-22.662 26.02-37.771l2.518-11.751c1.678-7.555-2.518-15.109-9.233-18.466zm-10.912 26.019c-2.518 10.911-9.233 20.984-18.466 26.859-14.269 9.233-31.056 10.911-49.521 5.875-78.059-21.823-119.19-78.059-132.62-96.525-20.144-27.698-28.538-56.236-23.502-78.898 3.357-15.108 14.269-26.02 20.984-31.895 1.679-1.679 4.197-2.518 6.715-2.518l16.787 1.679 22.662 52.879-20.144 22.662c-3.357 4.197-4.197 10.911-1.679 15.948 27.698 53.718 78.059 74.702 93.167 79.738 5.875 1.679 11.751 0 15.948-5.036l20.144-26.859 52.879 24.341-3.358 11.75z" data-original="#000000"/>		</g>	</g></svg>
